<svg xmlns="http://www.w3.org/2000/svg" xmlns:xlink="http://www.w3.org/1999/xlink" id="Layer_1" x="0px" y="0px" viewBox="0 0 645.9 170.3" style="enable-background:new 0 0 645.9 170.3;" xml:space="preserve"><style type="text/css">	.st0{fill:url(#SVGID_1_);}	.st1{fill:url(#SVGID_00000157278057690718310400000005933472895052999858_);}	.st2{fill:none;}	.st3{fill:url(#SVGID_00000043424607561522495880000015585006832908097957_);}	.st4{fill:#FFFFFF;}</style><g>	<linearGradient id="SVGID_1_" gradientUnits="userSpaceOnUse" x1="158.8379" y1="56.4522" x2="254.2402" y2="56.4522">		<stop offset="0" style="stop-color:#F0E74D"></stop>		<stop offset="1" style="stop-color:#5D9C50"></stop>	</linearGradient>	<path class="st0" d="M195.7,98.1l50.9,2.9c0,0,9.6-40.6,7.3-47.8c-9.6-29.9-32.2-41.3-55.8-41.3c-16.8,0-37.5,15.2-39.3,38.9  c8.1-9.6,24.8-13.6,36.8-13.6c14.5,0,30.1,12.5,30.1,30.5C225.7,79.3,216.4,98.1,195.7,98.1z"></path>			<linearGradient id="SVGID_00000070098845270673697010000007071580085930100653_" gradientUnits="userSpaceOnUse" x1="6.9863" y1="71.103" x2="255.1375" y2="71.103">		<stop offset="0.2949" style="stop-color:#CC333D"></stop>		<stop offset="0.6008" style="stop-color:#DB823C"></stop>		<stop offset="0.9379" style="stop-color:#F0E74D"></stop>	</linearGradient>	<path style="fill:url(#SVGID_00000070098845270673697010000007071580085930100653_);" d="M68.4,10.8c38.9,0,60.3,29.9,76.2,48.4  c18.1,21.1,35.1,38.8,50.8,38.8c52.2,0,53.6-56.4,53.6-56.4s21.7,47-16.2,79.6c-30.9,26.6-70.9-7.7-77.2-12.1  C149.4,104.8,114,67,114,67s-27.5-17-43.9-25.1S7.3,80.6,7.3,80.6C3.4,39,36.3,10.8,68.4,10.8z"></path>	<path class="st2" d="M157.7,118.3"></path>			<linearGradient id="SVGID_00000131348314669822485390000004466016580943226551_" gradientUnits="userSpaceOnUse" x1="7.2634" y1="79.7676" x2="257.0594" y2="79.7676">		<stop offset="1.945428e-02" style="stop-color:#C64F97"></stop>		<stop offset="0.1807" style="stop-color:#5D2F85"></stop>		<stop offset="0.4792" style="stop-color:#324999"></stop>		<stop offset="0.7143" style="stop-color:#5085B8"></stop>		<stop offset="0.9982" style="stop-color:#5D9C50"></stop>	</linearGradient>	<path style="fill:url(#SVGID_00000131348314669822485390000004466016580943226551_);" d="M7.3,78.7c0,27.7,26,58.6,53.1,58.6  c19.5,0,38.1-15,43.7-39.7c-10.5,10.7-20.8,13.3-34.7,13.3c-16,0-30.5-12.7-30.5-31c0-16.3,12.7-30,30.5-30  c13,0,24.3,6.5,56.3,39.8c20.7,21.5,33.7,46.4,69.8,46.4c28.9,0,46.1-17.9,52.6-29.5c19.8-35.9,1-65,1-65s5.8,69.2-53.5,69.2  c-29.4,0-38.5-18.8-55.1-36.7C98.5,29.5,85.2,22.3,63.2,22.3C40.9,22.3,7.3,41.5,7.3,78.7z"></path></g><g>	<path class="st4" d="M366.1,39.3c-2.2-2.8-5-5-8.5-6.6c-3.5-1.6-6.9-2.5-10.2-2.5c-1.7,0-3.4,0.1-5.1,0.4c-1.7,0.3-3.3,0.9-4.7,1.7  c-1.4,0.8-2.5,1.9-3.5,3.3c-0.9,1.3-1.4,3-1.4,5.1c0,1.8,0.4,3.3,1.1,4.5c0.7,1.2,1.8,2.2,3.3,3.1c1.4,0.9,3.1,1.7,5.1,2.5  c2,0.7,4.2,1.5,6.7,2.3c3.6,1.2,7.3,2.5,11.1,3.9c3.9,1.4,7.4,3.3,10.5,5.7c3.2,2.4,5.8,5.3,7.9,8.8c2.1,3.5,3.1,7.9,3.1,13.1  c0,6-1.1,11.3-3.3,15.7c-2.2,4.4-5.2,8-9,10.9c-3.8,2.9-8.1,5-12.9,6.4c-4.9,1.4-9.9,2.1-15,2.1c-7.5,0-14.8-1.3-21.8-3.9  c-7-2.6-12.9-6.4-17.5-11.2l16.6-16.9c2.6,3.2,6,5.8,10.2,7.9c4.2,2.1,8.4,3.2,12.6,3.2c1.9,0,3.7-0.2,5.5-0.6  c1.8-0.4,3.3-1,4.7-1.9c1.3-0.9,2.4-2.1,3.2-3.6c0.8-1.5,1.2-3.3,1.2-5.3c0-2-0.5-3.7-1.5-5.1c-1-1.4-2.4-2.6-4.2-3.8  c-1.8-1.1-4.1-2.2-6.8-3.1c-2.7-0.9-5.8-2-9.3-3c-3.4-1.1-6.7-2.4-9.9-3.9c-3.2-1.5-6.1-3.4-8.6-5.7c-2.5-2.3-4.6-5.1-6.1-8.5  c-1.5-3.3-2.3-7.4-2.3-12.1c0-5.8,1.2-10.8,3.6-15c2.4-4.2,5.5-7.6,9.4-10.3c3.9-2.7,8.2-4.6,13.1-5.9c4.9-1.2,9.8-1.9,14.7-1.9  c5.9,0,12,1.1,18.2,3.3c6.2,2.2,11.6,5.4,16.3,9.7L366.1,39.3z"></path>	<path class="st4" d="M481.1,115.3c-6.8,3.1-14.7,4.7-23.6,4.7c-8.1,0-15.6-1.3-22.5-4c-6.9-2.7-12.9-6.5-17.9-11.4  c-5.1-4.9-9-10.8-11.9-17.6c-2.9-6.8-4.3-14.4-4.3-22.6c0-8.4,1.5-16,4.4-22.9c2.9-6.8,7-12.7,12.1-17.5  c5.2-4.8,11.2-8.5,18.1-11.1c6.9-2.6,14.4-3.9,22.4-3.9c7.4,0,14.7,1.3,21.9,3.9c7.2,2.6,13,6.5,17.5,11.5l-17.2,17.2  c-2.4-3.3-5.5-5.7-9.4-7.3c-3.9-1.6-7.8-2.4-11.9-2.4c-4.5,0-8.5,0.8-12.3,2.5c-3.7,1.6-6.9,3.9-9.6,6.8c-2.7,2.9-4.8,6.3-6.2,10.2  c-1.5,3.9-2.2,8.2-2.2,12.9c0,4.8,0.7,9.1,2.2,13.1s3.5,7.4,6.2,10.2c2.6,2.8,5.8,5,9.4,6.6c3.7,1.6,7.7,2.4,12,2.4  c5.1,0,9.5-1,13.2-3c3.8-2,6.8-4.6,9.1-7.7l17.7,16.6C493.7,107.9,488,112.2,481.1,115.3"></path>	<polygon class="st4" points="612,117.1 612.6,42.7 612.2,42.7 584.8,117.1 567,117.1 540.4,42.7 540,42.7 540.6,117.1 516.7,117.1   516.7,12 552.8,12 576.8,79.4 577.3,79.4 600.3,12 637,12 637,117.1  "></polygon>	<polygon class="st4" points="310.3,141.6 312,141.6 312,158.5 320.6,158.5 320.6,160 310.3,160  "></polygon>	<path class="st4" d="M393.6,143.4l-4.3,10.1h8.5L393.6,143.4z M392.8,141.6h1.8l7.8,18.5h-1.9l-2-4.9h-9.8l-2.1,4.9h-1.8  L392.8,141.6z"></path>	<polygon class="st4" points="470.7,143.1 464.4,143.1 464.4,141.6 478.8,141.6 478.8,143.1 472.5,143.1 472.5,160 470.7,160  "></polygon>	<path class="st4" d="M549.7,143.4l-4.3,10.1h8.5L549.7,143.4z M548.9,141.6h1.8l7.8,18.5h-1.9l-2-4.9h-9.8l-2.1,4.9h-1.8  L548.9,141.6z"></path>	<polygon class="st4" points="618.5,141.6 621.1,141.6 627.8,157.1 634.5,141.6 637,141.6 637,160 635.3,160 635.3,143.8   635.2,143.8 628.2,160 627.4,160 620.3,143.8 620.2,143.8 620.2,160 618.5,160  "></polygon></g></svg>